<?xml version="1.0" encoding="UTF-8" standalone="no"?>
<svg
   xmlns:dc="http://purl.org/dc/elements/1.1/"
   xmlns:cc="http://creativecommons.org/ns#"
   xmlns:rdf="http://www.w3.org/1999/02/22-rdf-syntax-ns#"
   xmlns:svg="http://www.w3.org/2000/svg"
   xmlns="http://www.w3.org/2000/svg"
   xmlns:sodipodi="http://sodipodi.sourceforge.net/DTD/sodipodi-0.dtd"
   xmlns:inkscape="http://www.inkscape.org/namespaces/inkscape"
   width="35.602364mm"
   height="15.631634mm"
   viewBox="0 0 35.602363 15.631634"
   version="1.1"
   id="svg4769"
   sodipodi:docname="wuerse.svg"
   inkscape:version="1.0.2 (e86c870879, 2021-01-15, custom)"
   inkscape:export-filename="/tmp/chapter/_pages/wue/wuerse.png"
   inkscape:export-xdpi="592"
   inkscape:export-ydpi="592">
  <sodipodi:namedview
     pagecolor="#ffffff"
     bordercolor="#666666"
     borderopacity="1"
     objecttolerance="10"
     gridtolerance="10"
     guidetolerance="10"
     inkscape:pageopacity="0"
     inkscape:pageshadow="2"
     inkscape:window-width="2560"
     inkscape:window-height="1348"
     id="namedview27"
     showgrid="true"
     inkscape:zoom="6.2441667"
     inkscape:cx="65.162588"
     inkscape:cy="34.512481"
     inkscape:window-x="0"
     inkscape:window-y="27"
     inkscape:window-maximized="1"
     inkscape:current-layer="g40"
     fit-margin-top="0"
     fit-margin-left="0"
     fit-margin-right="0"
     fit-margin-bottom="0"
     inkscape:document-rotation="0">
    <inkscape:grid
       type="xygrid"
       id="grid44"
       originx="-4.6999439e-16"
       originy="0" />
  </sodipodi:namedview>
  <defs
     id="defs4763">
    <rect
       x="-31.38147"
       y="10.209865"
       width="24.214893"
       height="14.103435"
       id="rect48" />
  </defs>
  <metadata
     id="metadata4766">
    <rdf:RDF>
      <cc:Work
         rdf:about="">
        <dc:format>image/svg+xml</dc:format>
        <dc:type
           rdf:resource="http://purl.org/dc/dcmitype/StillImage" />
        <dc:title></dc:title>
      </cc:Work>
    </rdf:RDF>
  </metadata>
  <g
     inkscape:groupmode="layer"
     id="layer3"
     inkscape:label="Logo"
     style="display:inline"
     transform="translate(-3.0737096,-2.24689)"
     sodipodi:insensitive="true">
    <g
       id="g4553">
      <path
         inkscape:connector-curvature="0"
         style="opacity:1;fill:#c94fa0;fill-opacity:1;fill-rule:nonzero;stroke:none;stroke-width:0.264583;stroke-linecap:butt;stroke-linejoin:round;stroke-miterlimit:4;stroke-dasharray:none;stroke-dashoffset:0;stroke-opacity:0.941176;paint-order:stroke markers fill"
         d="m 24.709874,11.55494 -2.680456,4.64313 h -1.795756 l 0.89762,1.55495 h 5.29e-4 7.156668 z"
         id="path4669" />
      <path
         inkscape:connector-curvature="0"
         style="opacity:1;fill:#b03686;fill-opacity:1;fill-rule:nonzero;stroke:none;stroke-width:0.264583;stroke-linecap:butt;stroke-linejoin:round;stroke-miterlimit:4;stroke-dasharray:none;stroke-dashoffset:0;stroke-opacity:0.941176;paint-order:stroke markers fill"
         d="M 12.17882,2.24689 7.7026072,9.99991 h 2.3667808 v -2.4691 h 2.031917 c 1.298222,0 2.102714,0.66287 2.102714,1.75648 0,0.2639 -0.04971,0.50194 -0.14056,0.71262 h 0.796334 l 0.897619,-1.55495 z m -1.192176,6.05958 v 1.69344 h 1.998328 c 0.194316,-0.16886 0.294556,-0.41015 0.294556,-0.71262 0,-0.62089 -0.416264,-0.98082 -1.220598,-0.98082 z"
         id="path4663" />
      <path
         inkscape:connector-curvature="0"
         style="opacity:1;fill:#621e4b;fill-opacity:1;fill-rule:nonzero;stroke:none;stroke-width:0.264583;stroke-linecap:butt;stroke-linejoin:round;stroke-miterlimit:4;stroke-dasharray:none;stroke-dashoffset:0;stroke-opacity:0.941176;paint-order:stroke markers fill"
         d="m 15.75745,11.55494 -3.578593,6.19808 h 7.157185 z"
         id="path4665" />
      <path
         inkscape:connector-curvature="0"
         style="opacity:1;fill:#c94fa0;fill-opacity:1;fill-rule:nonzero;stroke:none;stroke-width:0.264583;stroke-linecap:butt;stroke-linejoin:round;stroke-miterlimit:4;stroke-dasharray:none;stroke-dashoffset:0;stroke-opacity:0.941176;paint-order:stroke markers fill"
         d="m 12.179374,2.24698 3.578076,6.19808 2.680973,-4.64313 h 1.795239 l -0.89762,-1.55495 z"
         id="path4671" />
      <path
         inkscape:connector-curvature="0"
         style="opacity:1;fill:#892a69;fill-opacity:1;fill-rule:nonzero;stroke:none;stroke-width:0.264583;stroke-linecap:butt;stroke-linejoin:round;stroke-miterlimit:4;stroke-dasharray:none;stroke-dashoffset:0;stroke-opacity:0.941176;paint-order:stroke markers fill"
         d="m 7.7026072,9.99991 4.4762128,7.75301 3.578592,-6.19807 -0.897619,-1.55494 h -0.796334 c -0.166613,0.38637 -0.476778,0.67803 -0.910539,0.84697 l 1.135848,1.62264 H 13.300715 L 12.291991,11.0231 c -0.0635,0.007 -0.127186,0.007 -0.190686,0.007 h -1.114661 v 1.43919 H 10.069388 V 9.99968 Z m 3.2840368,0 v 0.27543 h 1.072286 c 0.412501,0 0.721476,-0.0977 0.926042,-0.27543 z"
         id="path4673" />
      <path
         inkscape:connector-curvature="0"
         style="opacity:1;fill:#892a69;fill-opacity:1;fill-rule:nonzero;stroke:none;stroke-width:0.264583;stroke-linecap:butt;stroke-linejoin:round;stroke-miterlimit:4;stroke-dasharray:none;stroke-dashoffset:0;stroke-opacity:0.941176;paint-order:stroke markers fill"
         d="m 28.288429,2.24689 -3.578591,6.19807 0.898136,1.55495 h 0.828373 v -2.4691 h 3.604947 v 0.76894 h -2.688206 v 1.28416 h 2.384866 v 0.416 h 3.026688 z"
         id="path4667" />
      <path
         inkscape:connector-curvature="0"
         style="opacity:1;fill:#b03686;fill-opacity:1;fill-rule:nonzero;stroke:none;stroke-width:0.264583;stroke-linecap:butt;stroke-linejoin:round;stroke-miterlimit:4;stroke-dasharray:none;stroke-dashoffset:0;stroke-opacity:0.941176;paint-order:stroke markers fill"
         d="m 25.607974,9.99991 -0.898136,1.55494 3.578591,6.19807 4.476213,-7.75301 h -3.026688 v 0.33899 h -2.384866 v 1.36168 h 2.787425 v 0.76894 H 26.436347 V 9.99991 Z"
         id="path4675" />
      <path
         inkscape:connector-curvature="0"
         id="path5607"
         d="m 21.131798,2.24698 3.578076,6.19808 3.578593,-6.19808 z"
         style="opacity:1;fill:#621e4b;fill-opacity:1;fill-rule:nonzero;stroke:none;stroke-width:0.264583;stroke-linecap:butt;stroke-linejoin:round;stroke-miterlimit:4;stroke-dasharray:none;stroke-dashoffset:0;stroke-opacity:0.941176;paint-order:stroke markers fill" />
      <g
         id="text5362"
         style="font-style:normal;font-variant:normal;font-weight:normal;font-stretch:normal;font-size:7.05556px;line-height:125%;font-family:Montserrat;-inkscape-font-specification:Montserrat;text-align:start;letter-spacing:0px;word-spacing:0px;writing-mode:lr-tb;text-anchor:start;fill:#621e4b;fill-opacity:1;stroke:none;stroke-width:0.264583px;stroke-linecap:butt;stroke-linejoin:miter;stroke-opacity:1"
         aria-label="S">
        <path
           id="path4540"
           style="font-style:normal;font-variant:normal;font-weight:normal;font-stretch:normal;font-family:Montserrat;-inkscape-font-specification:Montserrat;fill:#621e4b;fill-opacity:1;stroke-width:0.264583px"
           d="m 20.230135,12.511785 c 1.262944,0 1.8415,-0.620889 1.8415,-1.347611 0,-1.7991664 -3.040945,-0.980722 -3.040945,-2.3353887 0,-0.4938888 0.402167,-0.8960555 1.305278,-0.8960555 0.437445,0 0.931333,0.1340556 1.354667,0.4092222 L 21.867024,7.9256743 C 21.471913,7.6505076 20.893357,7.4882298 20.335968,7.4882298 c -1.255889,0 -1.820333,0.6279445 -1.820333,1.3546667 0,1.8273885 3.040944,0.9948333 3.040944,2.3494995 0,0.486834 -0.402166,0.874889 -1.326444,0.874889 -0.649111,0 -1.277056,-0.254 -1.629834,-0.599722 L 18.39569,11.86973 c 0.366889,0.381 1.093611,0.642055 1.834445,0.642055 z"
           inkscape:connector-curvature="0" />
      </g>
      <path
         style="opacity:1;fill:#621e4b;fill-opacity:1;fill-rule:nonzero;stroke:none;stroke-width:0.264583;stroke-linecap:butt;stroke-linejoin:round;stroke-miterlimit:4;stroke-dasharray:none;stroke-dashoffset:0;stroke-opacity:0.941176;paint-order:stroke markers fill"
         d="m 21.131798,2.24698 3.578076,6.19808 3.578593,-6.19808 z"
         id="path4551"
         inkscape:connector-curvature="0" />
      <path
         id="path4553"
         d="m 28.288429,2.24689 -3.578591,6.19807 0.898136,1.55495 h 0.828373 v -2.4691 h 3.604947 v 0.76894 h -2.688206 v 1.28416 h 2.384866 v 0.416 h 3.026688 z"
         style="opacity:1;fill:#892a69;fill-opacity:1;fill-rule:nonzero;stroke:none;stroke-width:0.264583;stroke-linecap:butt;stroke-linejoin:round;stroke-miterlimit:4;stroke-dasharray:none;stroke-dashoffset:0;stroke-opacity:0.941176;paint-order:stroke markers fill"
         inkscape:connector-curvature="0" />
      <path
         id="path4555"
         d="m 25.607974,9.99991 -0.898136,1.55494 3.578591,6.19807 4.476213,-7.75301 h -3.026688 v 0.33899 h -2.384866 v 1.36168 h 2.787425 v 0.76894 H 26.436347 V 9.99991 Z"
         style="opacity:1;fill:#b03686;fill-opacity:1;fill-rule:nonzero;stroke:none;stroke-width:0.264583;stroke-linecap:butt;stroke-linejoin:round;stroke-miterlimit:4;stroke-dasharray:none;stroke-dashoffset:0;stroke-opacity:0.941176;paint-order:stroke markers fill"
         inkscape:connector-curvature="0" />
      <path
         id="path4557"
         d="m 24.709874,11.55494 -2.680456,4.64313 h -1.795756 l 0.89762,1.55495 h 5.29e-4 7.156668 z"
         style="opacity:1;fill:#c94fa0;fill-opacity:1;fill-rule:nonzero;stroke:none;stroke-width:0.264583;stroke-linecap:butt;stroke-linejoin:round;stroke-miterlimit:4;stroke-dasharray:none;stroke-dashoffset:0;stroke-opacity:0.941176;paint-order:stroke markers fill"
         inkscape:connector-curvature="0" />
      <path
         id="path4559"
         d="m 15.75745,11.55494 -3.578593,6.19808 h 7.157185 z"
         style="opacity:1;fill:#621e4b;fill-opacity:1;fill-rule:nonzero;stroke:none;stroke-width:0.264583;stroke-linecap:butt;stroke-linejoin:round;stroke-miterlimit:4;stroke-dasharray:none;stroke-dashoffset:0;stroke-opacity:0.941176;paint-order:stroke markers fill"
         inkscape:connector-curvature="0" />
      <path
         id="path4561"
         d="m 7.7026072,9.99991 4.4762128,7.75301 3.578592,-6.19807 -0.897619,-1.55494 h -0.796334 c -0.166613,0.38637 -0.476778,0.67803 -0.910539,0.84697 l 1.135848,1.62264 H 13.300715 L 12.291991,11.0231 c -0.0635,0.007 -0.127186,0.007 -0.190686,0.007 h -1.114661 v 1.43919 H 10.069388 V 9.99968 Z m 3.2840368,0 v 0.27543 h 1.072286 c 0.412501,0 0.721476,-0.0977 0.926042,-0.27543 z"
         style="opacity:1;fill:#892a69;fill-opacity:1;fill-rule:nonzero;stroke:none;stroke-width:0.264583;stroke-linecap:butt;stroke-linejoin:round;stroke-miterlimit:4;stroke-dasharray:none;stroke-dashoffset:0;stroke-opacity:0.941176;paint-order:stroke markers fill"
         inkscape:connector-curvature="0" />
      <path
         id="path4563"
         d="M 12.17882,2.24689 7.7026072,9.99991 h 2.3667808 v -2.4691 h 2.031917 c 1.298222,0 2.102714,0.66287 2.102714,1.75648 0,0.2639 -0.04971,0.50194 -0.14056,0.71262 h 0.796334 l 0.897619,-1.55495 z m -1.192176,6.05958 v 1.69344 h 1.998328 c 0.194316,-0.16886 0.294556,-0.41015 0.294556,-0.71262 0,-0.62089 -0.416264,-0.98082 -1.220598,-0.98082 z"
         style="opacity:1;fill:#b03686;fill-opacity:1;fill-rule:nonzero;stroke:none;stroke-width:0.264583;stroke-linecap:butt;stroke-linejoin:round;stroke-miterlimit:4;stroke-dasharray:none;stroke-dashoffset:0;stroke-opacity:0.941176;paint-order:stroke markers fill"
         inkscape:connector-curvature="0" />
      <path
         id="path4565"
         d="m 12.179374,2.24698 3.578076,6.19808 2.680973,-4.64313 h 1.795239 l -0.89762,-1.55495 z"
         style="opacity:1;fill:#c94fa0;fill-opacity:1;fill-rule:nonzero;stroke:none;stroke-width:0.264583;stroke-linecap:butt;stroke-linejoin:round;stroke-miterlimit:4;stroke-dasharray:none;stroke-dashoffset:0;stroke-opacity:0.941176;paint-order:stroke markers fill"
         inkscape:connector-curvature="0" />
    </g>
  </g>
  <g
     inkscape:groupmode="layer"
     id="layer2"
     inkscape:label="Prefix_as_path"
     style="display:inline"
     transform="translate(-3.0737096,-2.24689)"
     sodipodi:insensitive="true">
    <g
       aria-label="de"
       style="font-style:normal;font-variant:normal;font-weight:normal;font-stretch:normal;font-size:7.05556px;line-height:125%;font-family:Montserrat;-inkscape-font-specification:Montserrat;text-align:start;letter-spacing:0px;word-spacing:0px;writing-mode:lr-tb;text-anchor:start;display:inline;fill:#621e4b;fill-opacity:1;stroke:none;stroke-width:0.264583px;stroke-linecap:butt;stroke-linejoin:miter;stroke-opacity:1"
       id="text5346">
      <path
         inkscape:connector-curvature="0"
         d="m 5.3554763,2.2469654 v 1.560689 C 5.1381652,3.4718099 4.7825652,3.2940099 4.3676985,3.2940099 c -0.7408334,0 -1.2939889,0.5334 -1.2939889,1.3186834 0,0.7852833 0.5531555,1.3236222 1.2939889,1.3236222 0.4296833,0 0.7902222,-0.1876777 1.0025945,-0.5383389 V 5.9116211 H 5.7061374 V 2.2469654 Z M 4.3973318,5.6251655 c -0.5531556,0 -0.9680222,-0.4049889 -0.9680222,-1.0124722 0,-0.6074834 0.4148666,-1.0124723 0.9680222,-1.0124723 0.5482167,0 0.9630834,0.4049889 0.9630834,1.0124723 0,0.6074833 -0.4148667,1.0124722 -0.9630834,1.0124722 z"
         style="font-style:normal;font-variant:normal;font-weight:normal;font-stretch:normal;font-size:4.93889px;font-family:Montserrat;-inkscape-font-specification:Montserrat;fill:#621e4b;fill-opacity:1;stroke-width:0.264583px"
         id="path4534" />
      <path
         inkscape:connector-curvature="0"
         d="m 8.9496755,4.6126933 c 0,-0.7803445 -0.5284611,-1.3186834 -1.2594167,-1.3186834 -0.7309556,0 -1.2692945,0.5482167 -1.2692945,1.3186834 0,0.7704667 0.5531556,1.3236222 1.3631334,1.3236222 0.4099278,0 0.7704667,-0.1481666 1.0025945,-0.4247444 L 8.5891366,5.2843822 C 8.391581,5.5115711 8.1100644,5.6251655 7.7939755,5.6251655 c -0.5679723,0 -0.982839,-0.3605389 -1.0223501,-0.9038167 h 2.1731112 c 0,-0.039511 0.00494,-0.079022 0.00494,-0.1086555 z M 7.6902588,3.5952821 c 0.5087056,0 0.8791222,0.3556001 0.9235722,0.8643056 H 6.7716254 C 6.8160754,3.9508822 7.1864921,3.5952821 7.6902588,3.5952821 Z"
         style="font-style:normal;font-variant:normal;font-weight:normal;font-stretch:normal;font-size:4.93889px;font-family:Montserrat;-inkscape-font-specification:Montserrat;fill:#621e4b;fill-opacity:1;stroke-width:0.264583px"
         id="path4536" />
    </g>
  </g>
  <g
     inkscape:groupmode="layer"
     id="g42"
     inkscape:label="Prefix_as_path copy"
     style="display:inline"
     transform="translate(-3.0737096,-2.24689)">
    <g
       aria-label="de"
       style="font-style:normal;font-variant:normal;font-weight:normal;font-stretch:normal;font-size:7.05556px;line-height:125%;font-family:Montserrat;-inkscape-font-specification:Montserrat;text-align:start;letter-spacing:0px;word-spacing:0px;writing-mode:lr-tb;text-anchor:start;display:inline;fill:#621e4b;fill-opacity:1;stroke:none;stroke-width:0.264583px;stroke-linecap:butt;stroke-linejoin:miter;stroke-opacity:1"
       id="g40"
       transform="translate(28.456368,11.880775)">
      <text
         xml:space="preserve"
         id="text46"
         style="font-size:10.5833px;line-height:1.25;font-family:ArialMT;-inkscape-font-specification:ArialMT;letter-spacing:0px;word-spacing:0px;white-space:pre;shape-inside:url(#rect48);"
         transform="matrix(0.47557911,0,0,0.47557911,17.835587,-3.508575)"><tspan
           x="-31.380859"
           y="19.936026"><tspan
             style="font-style:normal;font-variant:normal;font-weight:normal;font-stretch:normal;font-size:10.5833px;font-family:Montserrat;-inkscape-font-specification:'Montserrat, Normal';font-variant-ligatures:normal;font-variant-caps:normal;font-variant-numeric:normal;font-variant-east-asian:normal">wü</tspan></tspan></text>
    </g>
  </g>
  <g
     inkscape:groupmode="layer"
     id="layer1"
     inkscape:label="Prefix_editable"
     style="display:none"
     sodipodi:insensitive="true"
     transform="translate(-3.0737096,-2.24689)">
    <text
       xml:space="preserve"
       style="font-style:normal;font-variant:normal;font-weight:normal;font-stretch:normal;font-size:7.05556px;line-height:125%;font-family:Montserrat;-inkscape-font-specification:Montserrat;text-align:end;letter-spacing:0px;word-spacing:0px;writing-mode:lr-tb;text-anchor:end;fill:#00ff00;fill-opacity:1;stroke:none;stroke-width:0.264583px;stroke-linecap:butt;stroke-linejoin:miter;stroke-opacity:1"
       x="9.1744738"
       y="5.9116211"
       id="text4513"><tspan
         sodipodi:role="line"
         id="tspan4511"
         x="9.1744738"
         y="5.9116211"
         style="font-size:4.93889px;text-align:end;text-anchor:end;fill:#00ff00;fill-opacity:1;stroke-width:0.264583px">de</tspan></text>
  </g>
  <g
     inkscape:groupmode="layer"
     id="layer4"
     inkscape:label="Helper_lines_alignment"
     style="display:none"
     sodipodi:insensitive="true"
     transform="translate(-3.0737096,-2.24689)">
    <path
       style="display:inline;opacity:1;fill:#404040;fill-opacity:1;fill-rule:nonzero;stroke:#ff0000;stroke-width:0.264583;stroke-linecap:butt;stroke-linejoin:round;stroke-miterlimit:4;stroke-dasharray:none;stroke-dashoffset:0;stroke-opacity:0.941176;paint-order:stroke markers fill"
       d="M 7.702053,9.9998196 V 2.17243"
       id="path5228"
       inkscape:connector-curvature="0" />
    <path
       style="display:inline;opacity:1;fill:#404040;fill-opacity:1;fill-rule:nonzero;stroke:#ff0000;stroke-width:0.264583;stroke-linecap:butt;stroke-linejoin:round;stroke-miterlimit:4;stroke-dasharray:none;stroke-dashoffset:0;stroke-opacity:0.941176;paint-order:stroke markers fill"
       d="M 12.17882,2.24689 H 1.377705"
       id="path5230"
       inkscape:connector-curvature="0" />
  </g>
</svg>
